<svg xmlns="http://www.w3.org/2000/svg" version="1.1" xmlns:xlink="http://www.w3.org/1999/xlink" xmlns:svgjs="http://svgjs.dev/svgjs" width="1440" height="560" preserveAspectRatio="none" viewBox="0 0 1440 560"><g mask="url(&quot;#SvgjsMask1001&quot;)" fill="none"><rect width="1440" height="560" x="0" y="0" fill="rgba(24, 106, 59, 1)"></rect><path d="M0,483.834C88.941,497.285,163.792,421.177,240.839,374.753C320.239,326.912,407.051,286.835,456.782,208.605C510.265,124.474,542.652,22.688,527.267,-75.81C511.952,-173.859,456.227,-268.746,373.628,-323.751C296.934,-374.824,195.583,-341.012,104.856,-357.107C27.095,-370.902,-41.887,-414.144,-120.817,-411.464C-216.364,-408.22,-319.897,-402.261,-392.632,-340.218C-468.55,-275.459,-508.967,-173.741,-516.181,-74.216C-523.171,22.221,-493.384,122.739,-431.577,197.095C-375.342,264.747,-271.444,259.676,-198.17,308.359C-123.161,358.195,-89.042,470.367,0,483.834" fill="#13552f"></path><path d="M1440 1080.056C1534.189 1054.716 1617.81 1015.072 1706.812 975.168 1813.49 927.338 1940.319 912.682 2014.6219999999998 822.421 2096.728 722.682 2169.938 583.702 2130.283 460.752 2090.032 335.95500000000004 1913.219 323.283 1822.9560000000001 228.16699999999997 1738.93 139.623 1742.855-38.18100000000004 1625.369-71.30899999999997 1507.564-104.52700000000004 1407.725 23.878000000000043 1299.2 80.48000000000002 1213.365 125.24799999999999 1126.408 161.06799999999998 1054.836 226.25400000000002 975.501 298.511 880.96 371.22900000000004 863.687 477.139 846.357 583.396 934.591 673.643 965.029 776.912 1001.982 902.284 951.463 1078.421 1061.6399999999999 1148.74 1171.923 1219.127 1313.661 1114.045 1440 1080.056" fill="#1d7f47"></path></g><defs><mask id="SvgjsMask1001"><rect width="1440" height="560" fill="#ffffff"></rect></mask></defs></svg>