<svg xmlns="http://www.w3.org/2000/svg" version="1.1" xmlns:xlink="http://www.w3.org/1999/xlink" xmlns:svgjs="http://svgjs.dev/svgjs" width="1440" height="560" preserveAspectRatio="none" viewBox="0 0 1440 560"><g mask="url(&quot;#SvgjsMask1010&quot;)" fill="none"><rect width="1440" height="560" x="0" y="0" fill="rgba(120, 66, 18, 1)"></rect><path d="M0,373.404C70.384,376.861,135.658,341.43,194.877,303.234C254.02,265.087,307.663,217.835,338.942,154.79C370.823,90.532,369.493,18.229,371.847,-53.464C374.683,-139.829,404.965,-236.974,354.1,-306.829C303.126,-376.833,200.349,-375.1,118.044,-402.02C32.804,-429.9,-52.154,-495.762,-137.285,-467.55C-222.417,-439.338,-243.016,-329.226,-302.948,-262.506C-364.381,-194.115,-474.394,-160.876,-493.53,-70.959C-512.661,18.933,-457.898,112.284,-397.444,181.507C-344.177,242.501,-255.874,249.466,-182.95,284.676C-120.653,314.755,-69.095,370.01,0,373.404" fill="#60350e"></path><path d="M1440 1090.301C1560.893 1090.391 1699.028 1185.8229999999999 1794.6770000000001 1111.888 1892.4189999999999 1036.335 1828.775 872.953 1871.255 756.948 1908.9270000000001 654.072 2025.211 585.027 2027.716 475.499 2030.307 362.216 1973.258 245.30700000000002 1884.571 174.777 1799.5430000000001 107.15699999999998 1676.971 138.106 1571.374 112.582 1472.555 88.69600000000003 1384.812 14.515999999999963 1284.284 29.68100000000004 1179.182 45.535999999999945 1095.21 121.00099999999998 1019.697 195.805 939.344 275.404 845.849 360.515 836.529 473.234 827.288 584.998 931.126 669.303 971.9110000000001 773.769 1015.989 886.671 985.2629999999999 1043.467 1085.663 1111.3600000000001 1185.704 1179.01 1319.233 1090.211 1440 1090.301" fill="#904f16"></path></g><defs><mask id="SvgjsMask1010"><rect width="1440" height="560" fill="#ffffff"></rect></mask></defs></svg>