<svg xmlns="http://www.w3.org/2000/svg" version="1.1" xmlns:xlink="http://www.w3.org/1999/xlink" xmlns:svgjs="http://svgjs.dev/svgjs" width="1440" height="560" preserveAspectRatio="none" viewBox="0 0 1440 560"><g mask="url(&quot;#SvgjsMask1006&quot;)" fill="none"><rect width="1440" height="560" x="0" y="0" fill="rgba(21, 67, 96, 1)"></rect><path d="M0,353.302C71.058,352.984,144.236,355.598,206.364,321.108C270.524,285.49,320.283,226.92,349.172,159.461C377.68,92.892,383.469,17.699,366.438,-52.686C350.264,-119.529,304.107,-172.606,256.753,-222.478C211.237,-270.414,160.454,-312.318,98.368,-335.01C33.392,-358.759,-36.836,-370.739,-104.046,-354.349C-172.953,-337.545,-245.449,-304.595,-280.106,-242.713C-313.764,-182.614,-277.351,-109.085,-279.955,-40.252C-282.209,19.34,-306.031,75.951,-294.373,134.435C-280.569,203.688,-264.222,280.828,-207.554,322.961C-150.283,365.542,-71.365,353.621,0,353.302" fill="#11364d"></path><path d="M1440 1064.876C1543.945 1076.807 1655.786 1089.107 1746.212 1036.474 1837.844 983.139 1904.237 885.726 1926.045 781.969 1946.344 685.392 1870.509 597.77 1859.0230000000001 499.754 1847.079 397.829 1921.309 278.597 1857.626 198.125 1794.452 118.29700000000003 1667.7069999999999 138.813 1566.3 129.863 1482.465 122.464 1399.301 123.024 1319.807 150.66000000000003 1243.0529999999999 177.34300000000002 1186.862 235.55 1121.894 284.36 1037.691 347.621 900.702 376.135 881.785 479.741 863.047 582.367 984.47 654.053 1038.0520000000001 743.564 1084.5230000000001 821.196 1105.188 914.5129999999999 1175.8609999999999 971.008 1250.356 1030.559 1345.25 1054 1440 1064.876" fill="#195073"></path></g><defs><mask id="SvgjsMask1006"><rect width="1440" height="560" fill="#ffffff"></rect></mask></defs></svg>